<svg xmlns="http://www.w3.org/2000/svg" style="display:none"><symbol id="telegram-icon" viewBox="0 0 18 18"><g fill="none"><circle cx="9" cy="9" r="9" fill="#59AAE7"/><path fill="#3D9AE3" d="M9.242 0A8.61 8.61 0 0 0 8.1.076C12.397.651 15.715 4.427 15.715 9c0 4.573-3.318 8.349-7.615 8.924.374.05.755.076 1.142.076C14.08 18 18 13.97 18 9s-3.92-9-8.758-9z"/><path fill="#FCFCFC" d="M6.446 10.563L3.658 9.19a.102.102 0 0 1-.002-.184l10.591-5.394c.078-.04.168.027.15.111l-1.823 8.979a.105.105 0 0 1-.143.074L9.953 11.73a.106.106 0 0 0-.092.005l-3.203 1.752a.104.104 0 0 1-.155-.09v-2.742a.103.103 0 0 0-.057-.092z"/><path fill="#D8D7DA" d="M6.32 11.652L6.3 8.99c0-.017.01-.033.028-.041l5.281-2.641c.06-.03.123.035.073.075L7.663 9.697a.05.05 0 0 0-.01.012l-.688 1.126-.533.839c-.028.045-.111.028-.112-.022z"/></g></symbol><symbol id="temp-icon-left-arrow" viewBox="0 0 31.494 31.494"><path d="M10.273 5.01a1.117 1.117 0 0 1 1.587 1.57l-8.047 8.047h26.554c.62 0 1.127.492 1.127 1.11 0 .62-.508 1.128-1.127 1.128H3.813l8.047 8.032c.43.444.43 1.16 0 1.587a1.112 1.112 0 0 1-1.587 0L.32 16.532a1.12 1.12 0 0 1 0-1.57l9.953-9.953z" fill="#1E201D"/></symbol><symbol id="temp-icon-right-arrow" viewBox="0 0 31.49 31.49"><path d="M21.205 5.007a1.117 1.117 0 0 0-1.587 1.57l8.047 8.048H1.11c-.618 0-1.11.493-1.11 1.112 0 .62.492 1.127 1.11 1.127h26.555l-8.047 8.032c-.43.444-.43 1.16 0 1.587.444.444 1.16.444 1.587 0l9.952-9.952a1.092 1.092 0 0 0 0-1.57l-9.952-9.95z" fill="#1E201D"/></symbol></svg>